<svg width="73" height="38" viewBox="0 0 73 38" fill="none" xmlns="http://www.w3.org/2000/svg">
<path d="M29.1508 0C23.8218 0 18.5252 2.1943 14.757 5.9625C12.3829 8.33659 10.6354 11.3172 9.66622 14.5303C7.33679 14.97 5.13678 16.107 3.45928 17.7844C1.27282 19.9709 0 23.0431 0 26.1352C0 29.2274 1.27282 32.3006 3.45928 34.4871C5.64577 36.6735 8.71897 37.9464 11.8111 37.9464H64.7098C66.6836 37.9464 68.6455 37.1343 70.0411 35.7387C71.4368 34.3431 72.2489 32.3811 72.2489 30.4074C72.2489 28.4336 71.4368 26.4727 70.0411 25.0771C68.6541 23.69 66.7076 22.8803 64.7462 22.8703C64.3634 19.2943 62.7433 15.8523 60.1982 13.3072C57.2674 10.3764 53.1484 8.66987 49.0036 8.66987C47.9973 8.66987 46.9932 8.77305 46.0066 8.9673C45.2846 7.88992 44.4624 6.88023 43.5447 5.9625C39.7765 2.1943 34.4799 0 29.1508 0V0Z" fill="white"/>
</svg>
